<svg width="22" height="22" fill="none" xmlns="http://www.w3.org/2000/svg"><path d="M15.93 0H6.07A6.07 6.07 0 000 6.07v9.86A6.07 6.07 0 006.07 22h9.86A6.07 6.07 0 0022 15.93V6.07A6.07 6.07 0 0015.93 0zm4.117 15.93a4.122 4.122 0 01-4.117 4.117H6.07a4.122 4.122 0 01-4.117-4.117V6.07A4.132 4.132 0 016.07 1.953h9.86a4.122 4.122 0 014.117 4.117v9.86z" fill="#000"/><path d="M11 5.337c-3.124 0-5.679 2.539-5.679 5.663A5.684 5.684 0 0011 16.679a5.684 5.684 0 005.679-5.68c0-3.123-2.555-5.662-5.679-5.662zm0 9.39c-2.05 0-3.726-1.66-3.726-3.71C7.29 8.95 8.95 7.29 11 7.29s3.726 1.66 3.726 3.71A3.736 3.736 0 0111 14.726zm5.907-11.05a1.39 1.39 0 00-1.01.424c-.26.26-.422.634-.422 1.008 0 .375.146.749.423 1.01.26.26.634.422 1.009.422a1.39 1.39 0 001.009-.423c.26-.26.423-.634.423-1.009a1.39 1.39 0 00-.423-1.008 1.363 1.363 0 00-1.01-.424z" fill="#000"/></svg>