<svg width="258" height="40" fill="none" xmlns="http://www.w3.org/2000/svg"><path fill-rule="evenodd" clip-rule="evenodd" d="M213.956 8.225c-2.23 0-4.021-1.791-4.021-4.094 0-2.267 1.827-4.131 4.094-4.131 2.266 0 4.13 1.791 4.13 4.058 0 2.302-1.864 4.167-4.203 4.167zm-76.435 24.052h-6.653v-28h6.762v7.676s2.998-2.559 6.909-2.559c6.616 0 10.528 5.593 10.528 11.698 0 6.25-3.985 11.734-10.309 11.734-2.96 0-5.154-.841-7.237-2.888v2.34zm-21.165.549c-6.909 0-11.661-4.204-11.661-11.734 0-6.8 4.862-11.698 11.478-11.698 6.47 0 11.039 4.277 11.039 12.283l.002.194.007.315c.008.275.015.514-.009.843h-15.791c.585 2.669 2.705 3.948 5.264 3.948 2.102 0 3.522-1.397 4.658-2.844l.204-.263s3.314 1.911 4.869 2.845l.431.262c-1.974 3.51-5.776 5.849-10.491 5.849zm-41.599-.549L66.203 9.833h7.165l4.46 12.429 4.094-12.429h5.446l4.314 12.502 4.423-12.502h7.055l-8.444 22.444H88.83l-4.168-12.063-4.02 12.063h-5.886zm41.343-17.18c2.12 0 3.29 1.023 4.094 3.18h-8.517c.841-2.084 2.12-3.18 4.423-3.18zm26.904.585c3.07 0 5.3 2.412 5.3 5.264 0 3.18-1.681 5.848-5.008 5.848-3.545 0-5.848-2.23-5.848-5.702 0-3.253 2.376-5.41 5.556-5.41zm26.758 17.363c-6.873 0-12.136-5.63-12.136-11.88 0-6.726 5.373-11.77 12.282-11.77 6.799 0 12.099 4.898 12.099 11.66 0 6.836-4.935 11.99-12.245 11.99zm.109-17.254c3.18 0 5.374 2.267 5.374 5.155 0 3.509-2.047 5.665-5.41 5.665-3.107 0-5.41-2.339-5.41-5.336 0-3.071 2.156-5.484 5.446-5.484zm29.207 16.486h-6.068l-9.394-22.444h7.603l4.898 13.123 4.606-13.123h7.165l-8.81 22.444zm18.314-22.444h-6.799v22.444h6.799V9.833zm3.655 11.332c0 6.25 5.264 11.88 12.136 11.88 7.311 0 12.246-5.154 12.246-11.99 0-6.762-5.301-11.66-12.1-11.66-6.908 0-12.282 5.044-12.282 11.77zm17.619-.22c0-2.887-2.193-5.154-5.373-5.154-3.29 0-5.447 2.413-5.447 5.484 0 2.997 2.303 5.337 5.41 5.337 3.363 0 5.41-2.157 5.41-5.666z" fill="#fff"/><path d="M252.082 24.182c2.303 0 4.203 1.9 4.203 4.203 0 2.303-1.9 4.204-4.203 4.204-2.303 0-4.204-1.9-4.204-4.204 0-2.303 1.901-4.203 4.204-4.203z" fill="#fff"/><path fill-rule="evenodd" clip-rule="evenodd" d="M36.65 34.484c-1.3 2.167-4.44 2.167-5.74 0L12.781 4.271h36.084c2.602 0 4.209 2.839 2.87 5.07L36.65 34.484z" fill="#FFD723"/><path fill-rule="evenodd" clip-rule="evenodd" d="M18.128 34.484c1.3 2.167 4.44 2.167 5.74 0L41.997 4.271H5.912c-2.602 0-4.209 2.839-2.87 5.07l15.086 25.143z" fill="#fff"/><path fill-rule="evenodd" clip-rule="evenodd" d="M12.781 4.271h29.215L27.39 28.617 12.781 4.271z" fill="#F6F6F6"/></svg>